<mxfile host="app.diagrams.net" modified="2020-10-07T07:52:30.905Z" agent="5.0 (X11; Linux x86_64) AppleWebKit/537.36 (KHTML, like Gecko) Chrome/85.0.4183.121 Safari/537.36" etag="-eSg096h-8WCOCdDCyiL" version="13.7.7" type="github">
  <diagram id="1dUoKl1fYfrE2XXSwOhj" name="Page-1">
    <mxGraphModel dx="2177" dy="806" grid="1" gridSize="10" guides="1" tooltips="1" connect="1" arrows="1" fold="1" page="1" pageScale="1" pageWidth="827" pageHeight="1169" math="0" shadow="0">
      <root>
        <mxCell id="0" />
        <mxCell id="1" parent="0" />
        <mxCell id="0NvGRokzl9AwmukjWN1j-17" style="edgeStyle=orthogonalEdgeStyle;rounded=0;orthogonalLoop=1;jettySize=auto;html=1;" edge="1" parent="1" source="0NvGRokzl9AwmukjWN1j-11">
          <mxGeometry relative="1" as="geometry">
            <mxPoint x="140" y="200" as="targetPoint" />
          </mxGeometry>
        </mxCell>
        <mxCell id="0NvGRokzl9AwmukjWN1j-18" style="edgeStyle=orthogonalEdgeStyle;rounded=0;orthogonalLoop=1;jettySize=auto;html=1;" edge="1" parent="1" source="0NvGRokzl9AwmukjWN1j-11">
          <mxGeometry relative="1" as="geometry">
            <mxPoint x="650" y="200" as="targetPoint" />
          </mxGeometry>
        </mxCell>
        <mxCell id="0NvGRokzl9AwmukjWN1j-11" value="&lt;font style=&quot;font-size: 36px&quot;&gt;Акции&lt;/font&gt;" style="text;html=1;align=center;verticalAlign=middle;resizable=0;points=[];autosize=1;" vertex="1" parent="1">
          <mxGeometry x="345" y="115" width="120" height="30" as="geometry" />
        </mxCell>
        <mxCell id="0NvGRokzl9AwmukjWN1j-25" style="edgeStyle=orthogonalEdgeStyle;rounded=0;orthogonalLoop=1;jettySize=auto;html=1;exitX=1;exitY=1;exitDx=0;exitDy=0;" edge="1" parent="1" source="0NvGRokzl9AwmukjWN1j-19">
          <mxGeometry relative="1" as="geometry">
            <mxPoint x="390" y="360" as="targetPoint" />
          </mxGeometry>
        </mxCell>
        <mxCell id="0NvGRokzl9AwmukjWN1j-42" style="edgeStyle=orthogonalEdgeStyle;rounded=0;orthogonalLoop=1;jettySize=auto;html=1;entryX=0.5;entryY=0;entryDx=0;entryDy=0;" edge="1" parent="1" source="0NvGRokzl9AwmukjWN1j-19" target="0NvGRokzl9AwmukjWN1j-40">
          <mxGeometry relative="1" as="geometry" />
        </mxCell>
        <mxCell id="0NvGRokzl9AwmukjWN1j-19" value="&lt;font style=&quot;font-size: 18px&quot;&gt;Глобальные акции&lt;/font&gt;" style="whiteSpace=wrap;html=1;" vertex="1" parent="1">
          <mxGeometry x="30" y="200" width="210" height="60" as="geometry" />
        </mxCell>
        <mxCell id="0NvGRokzl9AwmukjWN1j-26" style="edgeStyle=orthogonalEdgeStyle;rounded=0;orthogonalLoop=1;jettySize=auto;html=1;exitX=0;exitY=1;exitDx=0;exitDy=0;" edge="1" parent="1" source="0NvGRokzl9AwmukjWN1j-20">
          <mxGeometry relative="1" as="geometry">
            <mxPoint x="420" y="360" as="targetPoint" />
          </mxGeometry>
        </mxCell>
        <mxCell id="0NvGRokzl9AwmukjWN1j-43" style="edgeStyle=orthogonalEdgeStyle;rounded=0;orthogonalLoop=1;jettySize=auto;html=1;exitX=0.5;exitY=1;exitDx=0;exitDy=0;entryX=0.465;entryY=-0.008;entryDx=0;entryDy=0;entryPerimeter=0;" edge="1" parent="1" source="0NvGRokzl9AwmukjWN1j-20" target="0NvGRokzl9AwmukjWN1j-41">
          <mxGeometry relative="1" as="geometry" />
        </mxCell>
        <mxCell id="0NvGRokzl9AwmukjWN1j-20" value="&lt;font style=&quot;font-size: 18px&quot;&gt;Локальные акции&lt;/font&gt;" style="whiteSpace=wrap;html=1;spacingTop=0;" vertex="1" parent="1">
          <mxGeometry x="600" y="200" width="220" height="60" as="geometry" />
        </mxCell>
        <mxCell id="0NvGRokzl9AwmukjWN1j-22" style="edgeStyle=orthogonalEdgeStyle;rounded=0;orthogonalLoop=1;jettySize=auto;html=1;exitX=0.5;exitY=1;exitDx=0;exitDy=0;" edge="1" parent="1" source="0NvGRokzl9AwmukjWN1j-20" target="0NvGRokzl9AwmukjWN1j-20">
          <mxGeometry relative="1" as="geometry" />
        </mxCell>
        <mxCell id="0NvGRokzl9AwmukjWN1j-34" value="&lt;div&gt;&lt;div&gt;&lt;font style=&quot;font-size: 18px&quot;&gt;При создании требуется:&lt;/font&gt;&lt;/div&gt;&lt;div&gt;&lt;font size=&quot;3&quot;&gt;Дата начало: 26.09.2020&lt;/font&gt;&lt;/div&gt;&lt;div&gt;&lt;font size=&quot;3&quot;&gt;Дата окончания: 30.10.2020&lt;/font&gt;&lt;/div&gt;&lt;/div&gt;&lt;div&gt;&lt;font size=&quot;3&quot;&gt;&lt;br&gt;&lt;/font&gt;&lt;/div&gt;&lt;div&gt;&lt;font size=&quot;3&quot;&gt;Расписание для каждого дня недели: Понедельник с 7:00 до 23:00, Вторник с 13:00 до 00:00&lt;br&gt;&lt;/font&gt;&lt;/div&gt;&lt;div&gt;&lt;font size=&quot;3&quot;&gt;&lt;br&gt;&lt;/font&gt;&lt;/div&gt;&lt;div&gt;&lt;font size=&quot;3&quot;&gt;Возможность деактивировать акцию&lt;br&gt;&lt;/font&gt;&lt;/div&gt;" style="whiteSpace=wrap;html=1;align=center;" vertex="1" parent="1">
          <mxGeometry x="220" y="360" width="370" height="430" as="geometry" />
        </mxCell>
        <mxCell id="0NvGRokzl9AwmukjWN1j-39" value="&lt;font style=&quot;font-size: 18px&quot;&gt;Общие черты&lt;/font&gt;" style="text;html=1;align=center;verticalAlign=middle;resizable=0;points=[];autosize=1;" vertex="1" parent="1">
          <mxGeometry x="335" y="370" width="130" height="20" as="geometry" />
        </mxCell>
        <mxCell id="0NvGRokzl9AwmukjWN1j-40" value="&lt;font&gt;&lt;span style=&quot;font-size: 18px&quot;&gt;Можно добавить заведение: EVOS, KFC&lt;br&gt;&lt;/span&gt;&lt;br&gt;&lt;span style=&quot;font-size: 18px&quot;&gt;Возможность настроить доступность в регионах: Ташкент, Фергана&lt;/span&gt;&lt;br&gt;&lt;br&gt;&lt;span style=&quot;font-size: 18px&quot;&gt;Можно настроить главные категории: Ресторан, Маркет&lt;/span&gt;&lt;br&gt;&lt;br&gt;&lt;br&gt;&lt;/font&gt;" style="whiteSpace=wrap;html=1;" vertex="1" parent="1">
          <mxGeometry x="-120" y="320" width="300" height="330" as="geometry" />
        </mxCell>
        <mxCell id="0NvGRokzl9AwmukjWN1j-41" value="&lt;font&gt;&lt;span style=&quot;font-size: 18px&quot;&gt;Возможность добавить Филиалов заведений: Max way максим горький&lt;/span&gt;&lt;br&gt;&lt;br&gt;&lt;span style=&quot;font-size: 18px&quot;&gt;Главные категории и Регион определяются автоматически смотря&amp;nbsp;на филиалы&lt;/span&gt;&lt;br&gt;&lt;/font&gt;" style="whiteSpace=wrap;html=1;" vertex="1" parent="1">
          <mxGeometry x="670" y="320" width="300" height="330" as="geometry" />
        </mxCell>
      </root>
    </mxGraphModel>
  </diagram>
</mxfile>
